<!DOCTYPE svg PUBLIC "-//W3C//DTD SVG 20010904//EN" "http://www.w3.org/TR/2001/REC-SVG-20010904/DTD/svg10.dtd">
<svg version="1.0" xmlns="http://www.w3.org/2000/svg" width="1600px" height="1200px" viewBox="0 0 16000 12000" preserveAspectRatio="xMidYMid meet">
<g id="layer101" fill="#2f4f4f" stroke="none">
 <path d="M9060 9139 c-59 -10 -162 -56 -220 -97 -62 -45 -149 -142 -190 -212 -22 -38 -40 -72 -40 -77 0 -4 -6 -20 -14 -34 -17 -32 -41 -105 -60 -179 -31 -120 -38 -233 -33 -481 5 -211 9 -259 30 -354 51 -223 85 -324 166 -488 70 -140 103 -201 114 -205 4 -2 7 -8 7 -14 0 -10 93 -152 169 -256 88 -122 393 -500 496 -616 6 -6 32 -38 60 -71 27 -33 54 -65 60 -71 5 -6 39 -46 75 -89 36 -42 100 -118 143 -168 75 -87 77 -91 77 -142 l0 -53 -42 16 c-68 25 -220 22 -283 -7 -76 -33 -106 -51 -155 -89 -25 -20 -50 -39 -55 -43 -7 -5 -18 7 -30 29 -59 116 -140 210 -230 267 -69 44 -107 55 -185 55 -123 0 -207 -38 -316 -141 l-60 -59 -66 65 c-39 38 -91 76 -125 92 -54 26 -66 28 -193 28 -111 0 -141 -3 -168 -18 -20 -11 -38 -15 -45 -10 -7 5 -30 15 -52 22 -22 7 -54 19 -70 26 -57 26 -190 54 -312 66 -175 17 -345 -4 -478 -60 -72 -30 -105 -47 -105 -53 0 -5 -6 -8 -13 -8 -11 0 -63 -33 -135 -87 l-29 -22 -34 47 c-18 26 -54 69 -79 96 -45 48 -152 136 -166 136 -4 0 -15 6 -23 14 -9 7 -53 26 -98 41 -74 25 -92 27 -202 24 -78 -3 -124 -8 -133 -16 -6 -7 -19 -13 -29 -13 -24 0 -158 -71 -220 -117 -79 -59 -200 -188 -251 -268 -45 -71 -109 -199 -123 -245 -4 -14 -11 -29 -15 -35 -4 -5 -29 -82 -55 -170 -26 -88 -51 -167 -56 -175 -9 -17 -6 -24 -37 80 -40 134 -77 282 -97 390 -8 41 -23 118 -35 170 -12 52 -28 140 -36 195 -15 109 -33 156 -73 196 -41 40 -85 59 -141 59 -59 0 -103 -20 -143 -64 -43 -47 -55 -82 -62 -181 -36 -546 -102 -860 -207 -988 l-23 -28 -44 43 c-44 44 -95 114 -145 202 -40 69 -106 199 -106 208 0 5 -18 47 -40 94 -22 47 -40 88 -40 91 0 7 -25 62 -80 178 -56 116 -131 233 -186 290 -49 50 -116 105 -129 105 -5 0 -23 8 -40 17 -22 13 -54 17 -125 18 -97 0 -148 -15 -215 -65 -40 -30 -155 -153 -155 -166 0 -8 -4 -14 -8 -14 -5 0 -14 -12 -21 -27 -7 -16 -19 -38 -27 -51 -15 -23 -16 -22 -55 54 -55 106 -117 199 -175 263 -68 76 -182 171 -240 201 -27 14 -51 27 -54 31 -11 12 -80 39 -155 61 -67 19 -104 23 -225 23 -80 0 -159 -3 -176 -7 l-31 -7 8 42 c4 23 17 94 28 157 12 63 28 147 36 185 8 39 23 120 34 180 83 453 86 485 86 890 0 298 -3 365 -19 450 -20 112 -64 285 -76 300 -4 6 -13 28 -20 50 -7 22 -26 65 -41 95 -16 30 -29 59 -29 63 0 15 -86 121 -130 161 -66 60 -132 86 -217 86 -146 0 -245 -90 -333 -305 -55 -132 -106 -456 -130 -815 -28 -421 -19 -908 25 -1345 9 -82 24 -235 35 -340 10 -104 22 -226 25 -270 l6 -80 -73 -35 c-40 -19 -79 -40 -86 -47 -7 -7 -19 -13 -27 -13 -7 0 -15 -3 -17 -8 -1 -4 -26 -24 -55 -45 -92 -67 -171 -166 -293 -368 -29 -48 -105 -167 -120 -189 -56 -80 -90 -153 -90 -194 0 -47 34 -111 77 -143 33 -25 45 -28 113 -28 75 0 78 1 112 35 19 19 75 89 124 155 49 66 92 125 96 130 16 20 94 131 110 155 34 52 148 160 169 160 4 0 10 -30 14 -67 10 -101 34 -259 50 -333 8 -36 21 -96 29 -133 39 -178 148 -426 238 -544 65 -85 161 -168 235 -204 59 -28 79 -33 149 -33 73 -1 88 2 148 33 61 30 176 129 176 151 0 5 6 15 13 22 18 18 63 113 82 173 37 114 42 410 9 585 -26 143 -36 185 -44 195 -4 6 -11 21 -15 35 -4 14 -15 43 -25 65 -10 22 -19 45 -21 50 -2 6 -21 40 -41 76 -73 128 -242 283 -375 345 -23 10 -43 22 -43 25 0 10 76 58 104 65 15 3 28 10 31 14 3 5 37 14 76 21 201 36 388 -59 523 -265 29 -44 65 -110 80 -146 15 -36 31 -74 36 -85 23 -51 78 -306 105 -480 9 -60 25 -164 35 -230 10 -66 22 -145 25 -175 8 -72 41 -137 88 -174 71 -56 211 -46 268 20 44 51 49 80 49 273 1 302 22 475 86 694 23 79 48 139 75 182 22 36 44 65 47 65 10 0 72 -93 72 -107 0 -6 4 -13 8 -15 9 -3 88 -165 107 -218 7 -19 26 -64 42 -100 16 -36 38 -86 49 -112 10 -27 22 -48 27 -48 4 0 7 -6 7 -12 0 -13 36 -87 84 -173 65 -116 140 -218 221 -301 38 -39 154 -124 170 -124 4 0 22 -7 41 -16 25 -12 56 -15 126 -12 79 2 102 7 148 31 101 53 207 174 272 313 l30 64 60 -119 c67 -133 135 -213 214 -250 51 -24 174 -29 221 -9 47 20 103 68 141 122 65 89 91 153 172 421 34 110 67 214 75 230 7 17 23 53 35 80 64 144 217 295 334 330 78 23 160 -22 256 -139 27 -33 59 -79 71 -102 l22 -41 -45 -94 c-53 -108 -78 -164 -78 -174 0 -4 -6 -21 -14 -38 -30 -71 -37 -92 -61 -185 -80 -313 -113 -814 -76 -1157 23 -216 99 -588 140 -680 4 -11 16 -45 26 -75 56 -174 150 -345 244 -444 65 -68 120 -102 193 -122 53 -13 158 -9 158 6 0 4 11 11 24 14 33 8 116 92 141 141 11 22 23 42 28 43 4 2 7 8 7 14 0 5 6 24 14 41 49 109 82 290 97 527 11 181 5 518 -12 690 -5 52 -14 140 -20 195 -12 121 -54 377 -81 500 -11 50 -24 108 -28 130 -18 85 -93 346 -139 484 l-49 145 42 39 c64 61 138 104 228 134 72 23 98 27 193 26 61 -1 129 -8 152 -15 l41 -13 -33 -70 c-50 -108 -70 -208 -68 -360 1 -178 28 -281 131 -495 22 -46 65 -114 75 -118 4 -2 7 -10 7 -19 0 -20 184 -203 204 -203 9 0 16 -4 16 -10 0 -5 5 -10 11 -10 5 0 30 -9 54 -20 69 -31 142 -43 226 -37 66 5 184 38 199 56 3 3 17 12 31 20 42 21 124 110 164 176 70 118 78 159 85 450 5 212 9 268 24 305 35 91 89 189 130 235 l42 48 22 -23 c43 -47 78 -140 112 -300 29 -138 40 -250 46 -470 7 -212 14 -250 59 -302 41 -47 88 -68 149 -67 65 1 120 30 163 87 l33 44 0 167 c0 167 11 298 31 381 12 49 50 152 59 160 4 3 16 21 28 41 25 42 88 89 119 89 40 0 123 -91 139 -153 3 -15 9 -27 13 -27 4 0 17 -35 29 -77 16 -62 22 -118 26 -273 7 -243 29 -438 56 -490 27 -53 61 -87 93 -95 15 -4 30 -11 33 -16 9 -15 88 -10 129 7 45 19 86 57 110 104 17 32 18 57 11 300 -4 166 -12 299 -22 355 -9 50 -18 146 -21 215 l-5 125 29 -35 c15 -19 42 -50 59 -70 17 -19 66 -82 110 -140 43 -58 81 -107 85 -110 3 -3 25 -34 50 -70 24 -36 50 -71 56 -78 7 -7 25 -34 40 -60 15 -26 30 -49 33 -52 12 -11 140 -281 140 -296 0 -3 15 -39 34 -78 77 -166 224 -193 355 -66 47 46 55 70 81 250 11 74 27 171 35 215 15 87 26 156 51 340 19 137 21 347 5 419 -7 27 -9 51 -6 55 4 3 82 6 173 6 133 -1 180 -5 232 -19 36 -11 66 -20 68 -21 1 -1 -8 -40 -19 -86 -31 -118 -31 -327 0 -451 11 -49 25 -96 30 -105 5 -10 17 -43 26 -73 23 -69 95 -209 143 -275 74 -102 186 -194 265 -217 23 -6 47 -15 53 -20 6 -4 45 -11 86 -14 109 -10 220 28 288 96 11 11 25 20 30 20 17 0 101 41 155 76 46 29 131 109 187 177 l24 29 49 -39 c65 -49 132 -93 145 -93 5 0 10 -4 10 -10 0 -5 5 -10 11 -10 5 0 31 -10 57 -22 71 -34 225 -38 287 -8 43 21 145 121 145 142 0 5 7 25 16 44 l16 34 40 -45 c49 -55 116 -103 158 -111 16 -4 30 -11 30 -17 0 -16 143 -1 192 21 59 26 131 107 169 189 18 37 35 75 39 84 4 8 20 60 35 115 45 168 56 207 77 274 22 72 23 76 68 175 61 132 211 251 331 263 80 8 117 -5 168 -56 105 -106 161 -294 161 -542 0 -188 -39 -450 -95 -630 -14 -47 -30 -100 -35 -119 -5 -18 -13 -38 -19 -44 -6 -6 -11 -17 -11 -24 0 -30 -110 -259 -182 -377 -166 -275 -358 -485 -668 -729 -39 -31 -203 -139 -275 -182 -75 -44 -317 -165 -331 -165 -3 0 -20 -7 -37 -15 -47 -21 -269 -91 -367 -115 -47 -11 -101 -25 -120 -30 -19 -5 -93 -19 -165 -32 -114 -19 -165 -22 -415 -22 -300 -1 -322 1 -555 56 -83 19 -323 95 -370 117 -11 6 -54 24 -95 41 -172 73 -387 186 -496 261 -24 16 -47 29 -52 29 -6 0 -12 3 -14 8 -2 4 -25 25 -53 47 -58 46 -113 101 -164 165 -91 114 -128 153 -165 171 -78 37 -176 15 -226 -53 -21 -28 -25 -44 -25 -108 0 -62 5 -85 29 -135 93 -194 311 -397 592 -551 162 -88 440 -224 459 -224 4 0 22 -7 40 -16 84 -40 351 -127 460 -149 262 -55 415 -69 705 -62 129 3 275 10 325 16 149 18 452 81 487 101 10 6 24 10 33 10 17 0 255 79 270 90 6 4 28 13 50 20 22 7 45 16 50 20 6 4 21 11 35 15 38 11 214 101 320 163 143 83 243 151 360 245 19 15 40 31 45 35 91 63 351 321 456 452 122 153 299 424 299 459 0 5 3 11 8 13 20 9 130 269 181 428 86 274 121 477 128 755 6 230 -8 362 -57 520 -52 168 -146 322 -254 413 -61 51 -170 106 -244 121 -107 22 -289 10 -367 -24 -16 -7 -41 -16 -54 -20 -26 -8 -130 -67 -165 -94 -48 -36 -202 -198 -216 -226 -8 -16 -17 -32 -20 -35 -10 -9 -78 -154 -103 -220 -14 -36 -47 -141 -73 -234 l-48 -170 -40 85 c-74 154 -104 256 -156 523 -19 98 -49 165 -89 198 -80 67 -187 65 -267 -4 -61 -54 -59 -37 -65 -478 -5 -375 -9 -440 -28 -440 -4 0 -45 32 -91 71 -46 38 -96 79 -112 90 -27 19 -28 24 -28 98 0 77 -34 268 -51 286 -5 5 -9 15 -9 22 0 28 -105 225 -129 243 -4 3 -20 22 -36 43 -35 47 -172 154 -235 184 -25 12 -83 32 -130 44 -170 44 -354 9 -516 -97 l-51 -34 -84 30 c-224 81 -584 92 -883 28 -28 -6 -64 -10 -81 -8 -16 2 -70 3 -120 4 -97 0 -144 -15 -230 -74 -88 -61 -165 -165 -165 -224 0 -14 -9 -8 -38 25 -37 42 -161 193 -248 302 l-41 51 -7 196 c-23 685 -153 1584 -308 2125 -34 122 -102 329 -115 355 -7 14 -13 28 -13 32 0 4 -16 41 -35 82 -19 41 -35 77 -35 80 0 2 -21 40 -46 82 -118 199 -233 304 -408 373 -39 16 -199 22 -266 10z m198 -426 c45 -36 104 -112 134 -173 13 -25 26 -46 31 -48 4 -2 7 -8 7 -14 0 -6 9 -29 19 -52 58 -122 141 -388 195 -626 19 -85 42 -185 50 -221 8 -37 20 -93 25 -125 5 -33 22 -126 36 -209 14 -82 30 -179 35 -215 22 -169 61 -502 66 -565 2 -38 7 -92 9 -120 l5 -50 -23 27 c-199 240 -307 370 -413 501 -149 184 -289 398 -365 557 -63 131 -67 142 -100 247 -51 165 -72 307 -73 488 -1 313 66 525 192 606 60 38 116 36 170 -8z m-7567 -458 c29 -105 59 -355 59 -485 -1 -212 -36 -514 -99 -850 -11 -58 -25 -134 -31 -170 -7 -36 -18 -93 -26 -127 -8 -34 -14 -72 -14 -85 0 -13 -4 -18 -9 -12 -12 14 -29 219 -43 521 -19 459 15 1007 84 1318 6 28 13 54 16 59 6 11 35 -65 63 -169z m39 -2851 c64 -32 167 -133 203 -198 92 -166 134 -504 83 -661 -27 -83 -31 -86 -72 -41 -104 119 -188 358 -240 686 -15 95 -32 240 -28 240 1 0 26 -12 54 -26z m10973 -10 c90 -46 157 -131 199 -251 l25 -73 -51 0 -51 0 -50 77 c-56 86 -118 166 -179 232 l-41 44 58 -7 c32 -3 73 -14 90 -22z m-1618 -176 c4 -23 7 -63 7 -89 0 -78 -24 -289 -33 -289 -5 0 -20 17 -33 38 -13 20 -69 98 -125 172 l-100 135 47 3 c26 1 56 7 67 12 52 24 141 59 152 60 6 0 14 -19 18 -42z m-3027 -36 c59 -50 135 -142 177 -216 l29 -49 0 -210 c1 -209 1 -210 -23 -228 -33 -27 -62 -24 -109 11 -98 71 -195 262 -222 438 -13 82 4 180 45 261 29 58 26 58 103 -7z m4310 -157 c23 -28 102 -144 102 -151 0 -3 -9 -14 -20 -26 -22 -24 -60 -101 -60 -123 0 -67 -60 103 -79 225 -6 35 -8 82 -4 104 l6 39 19 -24 c11 -13 27 -33 36 -44z m-5643 -425 c8 -36 24 -105 35 -155 43 -184 92 -497 112 -720 26 -300 8 -859 -30 -897 -11 -11 -62 99 -101 217 -113 344 -167 760 -142 1105 17 228 63 521 89 565 6 10 14 -15 37 -115z"/>
 <path d="M2994 3931 c-62 -33 -104 -98 -104 -161 0 -62 63 -160 102 -160 10 0 18 -4 18 -10 0 -5 24 -10 54 -10 63 0 118 26 156 73 22 27 25 41 25 107 0 66 -3 80 -25 107 -55 68 -155 92 -226 54z"/>
 </g>

</svg>
